<svg width="200" height="200" viewBox="0 0 200 200" fill="none" xmlns="http://www.w3.org/2000/svg">
<rect width="200" height="200" rx="45" fill="#689D6A"/>
<path d="M48.1804 136.26C47.3404 136.26 46.5004 136.02 45.6604 135.54C44.8804 135.12 44.0704 134.58 43.2304 133.92C41.8504 132.66 40.2304 130.95 38.3704 128.79C36.5104 126.57 34.6804 123.96 32.8804 120.96C31.1404 117.9 29.6704 114.51 28.4704 110.79C27.3304 107.01 26.7604 102.9 26.7604 98.46C26.7604 93.42 27.5404 88.92 29.1004 84.96C30.6604 81 32.7904 77.55 35.4904 74.61C38.1904 71.67 41.2504 69.27 44.6704 67.41C48.0904 65.49 51.6604 64.08 55.3804 63.18C59.1604 62.22 62.8804 61.74 66.5404 61.74C70.9804 61.74 75.0604 62.46 78.7804 63.9C82.5604 65.28 85.5904 67.38 87.8704 70.2C90.1504 73.02 91.2904 76.59 91.2904 80.91C91.2904 83.07 90.7204 85.17 89.5804 87.21C88.4404 89.25 86.8204 90.93 84.7204 92.25C82.6804 93.57 80.2504 94.23 77.4304 94.23C75.7504 94.23 74.1604 94.05 72.6604 93.69C71.2204 93.27 69.7504 92.88 68.2504 92.52C66.8104 92.1 65.1904 91.89 63.3904 91.89C61.4704 91.89 59.5504 92.31 57.6304 93.15C55.7104 93.93 54.0904 95.19 52.7704 96.93C51.5104 98.67 50.8804 100.89 50.8804 103.59C50.8804 105.09 51.4504 106.11 52.5904 106.65C53.7904 107.13 55.1704 107.37 56.7304 107.37C58.0504 107.37 59.3704 107.28 60.6904 107.1C62.0704 106.92 63.1504 106.83 63.9304 106.83C65.9704 106.83 67.6504 107.19 68.9704 107.91C70.2904 108.63 70.9504 109.95 70.9504 111.87C70.9504 113.79 70.2904 115.11 68.9704 115.83C67.6504 116.55 65.9704 116.91 63.9304 116.91C62.1904 116.91 60.3004 116.82 58.2604 116.64C56.2804 116.4 54.4504 116.37 52.7704 116.55C51.9304 116.61 51.3304 116.94 50.9704 117.54C50.6104 118.14 50.4304 118.86 50.4304 119.7C50.4304 120.84 50.6104 122.13 50.9704 123.57C51.3304 125.01 51.6904 126.42 52.0504 127.8C52.4104 129.18 52.5904 130.35 52.5904 131.31C52.5904 133.05 52.0804 134.31 51.0604 135.09C50.0404 135.87 49.0804 136.26 48.1804 136.26ZM119.814 136.26C118.014 136.26 116.004 135.39 113.784 133.65C111.564 131.85 109.314 129.39 107.034 126.27C104.814 123.15 102.744 119.58 100.824 115.56C98.9041 111.48 97.3741 107.19 96.2341 102.69C95.0941 98.13 94.5241 93.54 94.5241 88.92C94.5241 83.7 95.3341 79.05 96.9541 74.97C98.5741 70.83 100.884 67.59 103.884 65.25C106.944 62.91 110.574 61.74 114.774 61.74C118.914 61.74 122.334 63.09 125.034 65.79C127.734 68.43 129.414 72.72 130.074 78.66C130.254 80.22 130.524 82.47 130.884 85.41C131.244 88.29 131.634 91.5 132.054 95.04C132.534 98.58 133.044 102.15 133.584 105.75C134.184 109.35 134.784 112.68 135.384 115.74C136.044 118.8 136.674 121.23 137.274 123.03C138.114 125.55 139.254 126.81 140.694 126.81C142.914 126.81 144.024 124.47 144.024 119.79C144.024 117.57 143.814 114.96 143.394 111.96C143.034 108.9 142.614 105.69 142.134 102.33C141.654 98.91 141.204 95.55 140.784 92.25C140.424 88.95 140.244 85.92 140.244 83.16C140.244 78 140.964 73.86 142.404 70.74C143.904 67.62 145.824 65.34 148.164 63.9C150.504 62.46 153.024 61.74 155.724 61.74C159.324 61.74 162.414 62.82 164.994 64.98C167.634 67.14 169.674 70.17 171.114 74.07C172.554 77.91 173.274 82.41 173.274 87.57C173.274 92.49 172.644 97.32 171.384 102.06C170.124 106.74 168.414 111.15 166.254 115.29C164.154 119.43 161.724 123.06 158.964 126.18C156.264 129.3 153.444 131.76 150.504 133.56C147.564 135.36 144.684 136.26 141.864 136.26C139.164 136.26 136.824 135.51 134.844 134.01C132.924 132.51 131.274 130.59 129.894 128.25C128.574 125.91 127.494 123.45 126.654 120.87C125.814 118.29 125.154 115.92 124.674 113.76C124.194 111.48 123.624 110.1 122.964 109.62C122.364 109.08 121.734 108.81 121.074 108.81C119.154 108.81 117.984 109.47 117.564 110.79C117.144 112.05 117.174 113.64 117.654 115.56C118.194 117.42 118.884 119.28 119.724 121.14C120.984 123.78 121.914 125.82 122.514 127.26C123.114 128.64 123.474 129.66 123.594 130.32C123.774 130.98 123.864 131.52 123.864 131.94C123.864 133.38 123.444 134.46 122.604 135.18C121.824 135.9 120.894 136.26 119.814 136.26Z" fill="#282828"/>
</svg>
